<?xml version="1.0" encoding="utf-8"?>
<!-- Generator: Adobe Illustrator 27.8.1, SVG Export Plug-In . SVG Version: 6.00 Build 0)  -->
<svg version="1.1" id="Layer_1" xmlns="http://www.w3.org/2000/svg" xmlns:xlink="http://www.w3.org/1999/xlink" x="0px" y="0px"
	 viewBox="0 0 640 480" style="enable-background:new 0 0 640 480;" xml:space="preserve">
<style type="text/css">
	.st0{fill:#FD1A16;stroke:#1A1A1A;stroke-width:3;stroke-miterlimit:10;}
</style>
<path class="st0" d="M293.18,277.27c-5.96-8.37-7.03-20.1-2.25-29.19c3.43-6.53,7.13-9.74,12.61-14.22
	c14.78-12.17,12.23-28.95,8.98-45.5c3.01,2.1,6.29,3.9,8.66,6.69c2.04,2.41,3.38,5.42,5.08,8.07c3.45,5.35,7.24,10.62,9.15,16.78
	c2.68,8.62,2.34,18.14-0.93,26.56c6.01-4,9.42-11.58,8.43-18.74c4.81,7.74,8.12,16.54,8.58,25.64s-2.09,18.49-7.89,25.52
	C330.95,294.21,304.75,293.53,293.18,277.27z"/>
</svg>
