<?xml version="1.0" encoding="utf-8"?>
<!-- Generator: Adobe Illustrator 27.8.1, SVG Export Plug-In . SVG Version: 6.00 Build 0)  -->
<svg version="1.1" id="Layer_1" xmlns="http://www.w3.org/2000/svg" xmlns:xlink="http://www.w3.org/1999/xlink" x="0px" y="0px"
	 viewBox="0 0 612 792" style="enable-background:new 0 0 612 792;" xml:space="preserve">
<style type="text/css">
	.st0{fill:#156D2A;}
</style>
<g>
	
		<image style="overflow:visible;" width="238" height="212" xlink:href="download.png"  transform="matrix(0.5608 0 0 0.5517 207.9788 352.7288)">
	</image>
	<g>
		<g>
			<path class="st0" d="M187.3,483.6c-0.1,0.3-0.1,0.5-0.2,0.8c-0.7,0-1.4,0-1.8-0.1c-0.5-0.1-1.2-0.3-2.3-0.6
				c-0.8-0.2-1.5-0.4-2.1-0.6c-1.1-0.3-2.2-0.4-3.4-0.5c0.1-0.3,0.1-0.5,0.2-0.8c1.1,0.2,1.9,0.1,2.4-0.1c0.4-0.2,0.7-0.5,0.9-1
				c0.3-0.5,0.8-2.4,1.7-5.6c0.8-3.1,1.3-4.7,2.1-7.8c0-0.1,0.1-0.2,0.1-0.4c-0.6-0.2-1.1-0.3-1.5-0.3c-2-0.4-3.6-0.6-4.8-0.4
				s-2.1,0.5-2.7,1.1c-0.6,0.6-0.9,1.4-0.9,2.3c0,0.3,0.1,0.6,0.2,0.9c0.1,0.2,0.3,0.6,0.7,1.1c0.4,0.5,0.6,0.9,0.6,1.2
				c0,0.3-0.1,0.5-0.3,0.6c-0.2,0.1-0.5,0.2-0.8,0.1c-0.5-0.1-0.8-0.4-1.1-0.9c-0.4-0.7-0.6-1.6-0.6-2.5c0-1.3,0.4-2.4,1.2-3.3
				c0.8-1,1.9-1.6,3.4-1.9s3.2-0.2,5.2,0.2c1,0.2,2.5,0.7,4.7,1.3c1.5,0.5,2.6,0.7,3.3,0.8c0.7,0.1,1.2,0.1,1.5-0.1
				c0.3-0.2,0.4-0.4,0.4-0.8c0-0.1,0-0.2,0-0.4c0-0.2,0-0.3,0-0.4c0-0.3,0.1-0.5,0.3-0.7c0.2-0.2,0.4-0.2,0.7-0.2
				c0.3,0,0.6,0.2,0.8,0.5c0.2,0.3,0.3,0.6,0.3,1c0,0.8-0.4,1.4-1.3,1.9c-0.9,0.5-2.3,0.5-4.4,0.2c-0.7-0.1-1.5-0.3-2.4-0.5
				c-0.1,0.4-0.5,1.6-1,3.6c-0.6,2-0.9,3.1-1.4,5.1c-0.3,1.2-0.5,1.9-0.9,3.1c-0.4,1.4-0.5,2.1-0.9,3.6c0.7,0.2,1.3,0.4,1.8,0.5
				C185.8,483.5,186.5,483.6,187.3,483.6z"/>
			<path class="st0" d="M201.8,473.1c0.4,0,0.6-0.1,1.1-0.1c-0.5,1.5-0.7,2.3-1.2,3.9c-0.5,1.5-0.9,3.3-1.4,5.3
				c-0.2,1.1-0.4,1.8-0.4,2.1c0,0.3,0.1,0.5,0.4,0.5c0.2,0,0.5-0.1,0.8-0.2c0.7-0.3,1.3-0.7,1.9-1.3c0.2,0.3,0.3,0.4,0.5,0.7
				c-1.2,1-2,1.6-2.4,1.7c-0.7,0.4-1.4,0.7-2,0.8c-0.4,0.1-0.8,0.1-1.2,0.1c-0.3,0-0.5-0.1-0.6-0.3c-0.1-0.1-0.2-0.3-0.2-0.6
				c0-0.2,0-0.4,0.1-0.6c0.3-0.8,0.4-1.2,0.7-2c-0.9,1-2,1.7-3.3,2.3c-0.8,0.4-1.5,0.5-2.2,0.4c-0.6-0.1-1.1-0.4-1.5-0.9
				c-0.5-0.6-0.7-1.4-0.7-2.4c0-1.1,0.3-2.3,0.9-3.5c0.6-1.3,1.4-2.4,2.5-3.3c1-1,2.1-1.6,3.3-2c0.9-0.3,2-0.4,3.4-0.2
				c0.3,0,0.7,0.1,1.1,0.2C201.6,473.4,201.7,473.3,201.8,473.1z M199.8,475.3c-0.6-0.2-1.1-0.3-1.5-0.3c-1-0.1-1.8,0-2.6,0.5
				c-0.7,0.4-1.4,1.3-2,2.5c-0.6,1.2-0.9,2.5-0.9,3.9c0,0.7,0.1,1.2,0.4,1.6c0.2,0.4,0.6,0.6,1,0.6c0.7,0.1,1.6-0.2,2.4-0.8
				c0.9-0.7,1.5-1.7,1.9-3.1C199,478.1,199.3,477.2,199.8,475.3z"/>
			<path class="st0" d="M205.2,477.3c-0.3-0.2-0.4-0.4-0.7-0.6c1.1-1.1,2.1-1.8,3-2.2c0.9-0.4,1.7-0.6,2.3-0.6
				c0.3,0,0.6,0.1,0.8,0.3c0.2,0.2,0.3,0.4,0.3,0.6c0,0.3-0.4,1.6-1.1,3.8c-1.1,3.7-1.7,5.9-1.7,6.6c0,0.1,0,0.3,0.1,0.4
				s0.2,0.2,0.2,0.2c0.3,0,1.2-0.6,2.7-1.8c0.3,0.3,0.4,0.4,0.6,0.6c-1.5,1.3-2.6,2.1-3.3,2.4c-0.7,0.3-1.2,0.5-1.7,0.4
				c-0.4,0-0.7-0.2-0.9-0.4c-0.2-0.2-0.3-0.6-0.3-1c0-1.3,0.8-4.4,2.4-9.4c0.1-0.2,0.1-0.4,0.1-0.6c0-0.2-0.1-0.3-0.3-0.3
				c-0.2,0-0.5,0.1-0.7,0.2C206.8,475.9,206.2,476.4,205.2,477.3z M211.6,467.2c0.3,0,0.6,0.1,0.8,0.4s0.3,0.5,0.3,0.8
				c0,0.5-0.2,0.9-0.5,1.2c-0.3,0.3-0.7,0.5-1.1,0.5c-0.3,0-0.6-0.1-0.8-0.4c-0.2-0.2-0.3-0.5-0.3-0.9c0-0.5,0.2-0.9,0.5-1.2
				C210.8,467.4,211.2,467.2,211.6,467.2z"/>
			<path class="st0" d="M217.7,476.9c0.9-0.9,1.7-1.6,2.6-2c0.9-0.4,1.6-0.7,2.3-0.7c0.8,0,1.4,0.3,1.8,0.9c0.5,0.6,0.7,1.5,0.7,2.7
				c0,1.7-0.4,3.4-1.3,5.1c-0.8,1.7-1.9,2.9-3.1,3.8c-1.2,0.9-2.4,1.3-3.6,1.2c-1,0-1.8-0.3-2.4-0.9c-0.6-0.6-0.9-1.3-0.9-2.2
				c0-0.7,0.1-1.7,0.4-3c0.8-3.3,1.2-5,1.9-8.3c0.5-2,1.1-3.6,1.8-4.6c0.7-1.1,1.6-1.9,2.8-2.6c1.2-0.6,2.2-1,3.3-1
				c0.6,0,1.1,0.1,1.4,0.3c0.3,0.2,0.4,0.5,0.4,0.8c0,0.3-0.1,0.6-0.4,0.8c-0.3,0.2-0.6,0.3-1.1,0.3c-0.4,0-1-0.1-1.9-0.2
				c-0.4-0.1-0.7-0.1-1-0.1c-0.5,0-1,0.3-1.3,0.9c-0.3,0.4-0.6,1.6-1,3.4C218.5,473.6,218.2,474.7,217.7,476.9z M220.9,476
				c-0.5,0-1.2,0.3-1.9,0.9c-0.7,0.6-1.4,1.7-2.1,3.3c-0.7,1.6-1,3.1-1,4.6c0,0.6,0.2,1,0.6,1.4c0.4,0.4,0.8,0.6,1.3,0.6
				c1.2,0,2.3-0.9,3.2-2.7c0.9-1.8,1.4-3.7,1.4-5.5c0-0.8-0.2-1.5-0.5-2C221.7,476.2,221.3,476,220.9,476z"/>
			<path class="st0" d="M237.9,473.4c0.4-0.1,0.6-0.2,1.1-0.3c-0.5,1.6-0.7,2.5-1.2,4.1c-0.5,1.6-0.9,3.5-1.4,5.6
				c-0.2,1.1-0.4,1.9-0.4,2.2c0,0.3,0.1,0.5,0.4,0.5c0.2,0,0.5-0.1,0.8-0.4c0.7-0.4,1.3-1,1.9-1.6c0.2,0.2,0.3,0.4,0.5,0.6
				c-1.2,1.2-2,1.9-2.4,2.2c-0.7,0.5-1.4,0.9-2,1.1c-0.4,0.2-0.8,0.3-1.2,0.3c-0.3,0-0.5,0-0.6-0.2c-0.1-0.1-0.2-0.3-0.2-0.5
				c0-0.2,0-0.4,0.1-0.7c0.3-0.9,0.4-1.3,0.7-2.2c-0.9,1.1-2,2.1-3.3,2.9c-0.8,0.5-1.5,0.8-2.2,0.8c-0.6,0-1.1-0.2-1.5-0.6
				c-0.5-0.6-0.7-1.3-0.7-2.3c0-1.1,0.3-2.4,0.9-3.8s1.4-2.7,2.5-3.8c1-1.2,2.1-2,3.3-2.6c0.9-0.4,2-0.7,3.4-0.8c0.3,0,0.7,0,1.1,0
				C237.6,473.7,237.7,473.6,237.9,473.4z M235.8,475.9c-0.6-0.1-1.1-0.1-1.5-0.1c-1,0.1-1.8,0.4-2.6,0.9c-0.7,0.6-1.4,1.5-2,2.9
				c-0.6,1.4-0.9,2.7-0.9,4.1c0,0.7,0.1,1.2,0.4,1.5c0.2,0.3,0.6,0.5,1,0.4c0.7,0,1.6-0.4,2.4-1.3c0.9-0.8,1.5-2,1.9-3.5
				C235,478.9,235.3,477.9,235.8,475.9z"/>
			<path class="st0" d="M253.8,482.3c0.2,0.2,0.3,0.3,0.4,0.6c-1,1.2-2,2.2-3.1,2.9c-0.7,0.5-1.3,0.8-1.8,0.8
				c-0.4,0-0.7-0.1-0.9-0.4c-0.2-0.3-0.4-0.7-0.4-1.4c0-0.4,0.1-1.1,0.3-1.9c0.2-0.8,0.7-2.6,1.5-5.4c0.4-1.4,0.6-2.2,0.6-2.4
				c0-0.3-0.2-0.5-0.6-0.5c-0.5,0-1,0.3-1.7,0.8c-1,0.7-1.8,1.6-2.5,2.6c-0.5,0.7-0.8,1.6-1.1,2.8c-0.5,2.3-0.8,3.4-1.3,5.7
				c-1,0.1-1.5,0.1-2.4,0.2c0.5-1.9,0.9-3.4,1.2-4.6c1-4.2,1.4-6.3,2.4-10.4c0.4-1.9,1-3.4,1.7-4.5c0.7-1.1,1.6-2,2.8-2.7
				c1.1-0.7,2.3-1.1,3.4-1.3c0.5-0.1,0.8,0,1.1,0.2c0.3,0.2,0.4,0.5,0.4,0.8c0,0.3-0.1,0.6-0.4,0.8c-0.3,0.3-0.6,0.4-1.1,0.5
				c-0.3,0-0.6,0-1,0c-0.9,0-1.6,0-1.9,0c-0.5,0-0.9,0.3-1.2,0.7c-0.3,0.4-0.6,1.4-1,2.9c-0.7,3.2-1.1,4.8-1.8,8.1
				c1.3-1.4,2.7-2.7,4.2-3.8c0.9-0.6,1.6-1,2.2-1c0.4,0,0.8,0,1,0.3c0.2,0.2,0.4,0.6,0.4,1c0,0.4,0,0.7-0.1,1.1
				c-0.1,0.6-0.5,1.8-1,3.5c-0.7,2.4-1.1,3.8-1.3,4.4c-0.1,0.6-0.2,1.1-0.2,1.5c0,0.2,0,0.3,0.1,0.4c0.1,0.1,0.1,0.1,0.3,0.1
				c0.3,0,0.7-0.4,1.5-1.1C252.8,483.3,253.3,482.9,253.8,482.3z"/>
			<path class="st0" d="M281.3,466.8c-0.3,0-0.5,0.1-0.9,0.1c0.1-0.6,0.1-1,0.1-1.3c0-0.4-0.2-0.7-0.5-0.8c-0.4-0.1-1.7,0-4.1,0.4
				c-1,0.1-1.4,0.2-2.4,0.3c-0.7,3-1.1,4.4-1.8,7.4c1.3-0.2,2-0.3,3.4-0.5c1.1-0.1,1.7-0.3,2-0.5c0.2-0.2,0.4-0.6,0.5-1.2
				c0.4-0.1,0.6-0.1,0.9-0.1c-0.3,1.4-0.7,2.8-0.9,4.4c-0.3,0-0.5,0.1-0.8,0.1c0.1-0.5,0.1-0.9,0.1-1.2c0-0.1-0.1-0.3-0.2-0.4
				c-0.1-0.1-0.2-0.1-0.4-0.1c-0.3,0-0.7,0-1.4,0.1c-1.3,0.2-2,0.3-3.3,0.4c-1,3.8-2,6.8-3,9c1-0.4,1.9-0.7,2.7-0.8
				c1.3-0.2,2.9-0.2,4.8,0c1,0.1,1.7,0.1,2,0.1c0.5-0.1,0.9-0.2,1.2-0.5c0.3-0.3,0.4-0.6,0.4-0.9c0-0.2-0.1-0.4-0.2-0.8
				c-0.1-0.3-0.1-0.5-0.1-0.7c0-0.2,0.1-0.5,0.3-0.7c0.2-0.2,0.4-0.4,0.7-0.4c0.3,0,0.6,0,0.8,0.3c0.2,0.2,0.3,0.6,0.3,1
				c0,0.9-0.4,1.8-1.2,2.6c-0.8,0.8-1.9,1.3-3.2,1.5c-0.7,0.1-1.6,0.1-2.6,0.2c-2.3,0-4.1,0.1-5.3,0.3c-1.6,0.2-3.5,0.6-5.6,1.1
				c0.1-0.4,0.2-0.6,0.3-0.9c1.3-0.5,2-0.9,2.3-1c0.2-0.2,0.4-0.5,0.6-0.8c0.5-1.1,1.2-3.2,2-6.4c0.8-3.2,1.7-6.6,2.5-10.1
				c-1.3,0.2-2.5,0.6-3.7,1.4c-1.2,0.8-2.1,1.7-2.7,2.7c-0.7,1.1-1,2.1-1,3.2c0,0.5,0,0.9,0.1,1.2c0.1,0.3,0.3,0.8,0.6,1.4
				c0.2,0.4,0.3,0.6,0.3,0.9c0,0.2-0.1,0.5-0.3,0.7c-0.2,0.2-0.4,0.3-0.7,0.4c-0.4,0.1-0.8-0.1-1-0.5c-0.4-0.6-0.6-1.4-0.6-2.4
				c0-2.3,0.9-4.4,2.6-6.4c1.7-2,4.2-3.2,7.5-3.7c2.2-0.3,3.4-0.5,5.6-0.8c1.9-0.3,3.4-0.6,4.3-1
				C281.7,464.7,281.4,466.1,281.3,466.8z"/>
			<path class="st0" d="M283.8,474.6c3-0.4,4.5-0.6,7.6-1c-0.2,0.7-0.2,1-0.4,1.7c-3,0.4-4.6,0.6-7.6,1
				C283.5,475.6,283.6,475.3,283.8,474.6z"/>
			<path class="st0" d="M291.6,481.3c0.1-0.4,0.1-0.5,0.2-0.9c1.1-0.4,1.9-0.7,2.3-1.1c0.4-0.3,0.7-0.9,1-1.7
				c0.3-0.8,0.7-2.3,1.3-4.7c0.7-3.1,1.3-5.4,1.9-6.7c0.9-2.1,2-3.7,3.3-4.9c1.3-1.1,2.6-1.8,4-2c0.9-0.1,1.6,0,2.2,0.4
				c0.6,0.4,0.9,0.8,0.9,1.3c0,0.3-0.1,0.5-0.3,0.7c-0.2,0.2-0.4,0.3-0.6,0.4c-0.3,0-0.7-0.1-1.2-0.5c-0.5-0.4-0.9-0.6-1.2-0.7
				c-0.3-0.1-0.6-0.1-0.8-0.1c-0.3,0-0.6,0.2-0.9,0.4c-0.4,0.3-0.9,0.8-1.4,1.6c-0.5,0.7-1,1.8-1.5,3.2c-0.3,0.9-0.8,2.5-1.3,4.6
				c-0.8,3.4-1.4,5.6-1.9,6.8c-0.3,0.8-0.7,1.5-1.1,2c1.6-0.5,2.8-0.9,3.7-1c0.6-0.1,1.1-0.1,1.6-0.1c0.5,0,1.3,0.1,2.6,0.2
				c1.1,0.1,1.8,0.2,2.2,0.1c0.4,0,0.8-0.2,1.1-0.5c0.3-0.3,0.4-0.6,0.4-0.9c0-0.2-0.1-0.5-0.2-0.8c-0.1-0.3-0.2-0.6-0.2-0.8
				c0-0.3,0.1-0.5,0.3-0.7c0.2-0.2,0.4-0.3,0.7-0.3c0.3,0,0.6,0.1,0.8,0.3c0.2,0.3,0.3,0.6,0.3,1.2c0,1-0.4,1.8-1.2,2.6
				c-0.8,0.8-1.8,1.3-3.2,1.4c-0.7,0.1-1.5,0.1-2.6,0.2c-3.5,0.1-5.8,0.3-6.9,0.4C294.2,480.7,292.8,481,291.6,481.3z"/>
			<path class="st0" d="M312.7,468.4c-0.3-0.2-0.4-0.3-0.7-0.5c1.1-1.3,2.1-2.3,3-2.9c0.9-0.6,1.7-1,2.3-1c0.3,0,0.6,0,0.8,0.1
				c0.2,0.1,0.3,0.3,0.3,0.6c0,0.3-0.4,1.7-1.1,4.2c-1.1,4-1.7,6.4-1.7,7.3c0,0.2,0,0.3,0.1,0.4c0.1,0.1,0.2,0.1,0.2,0.1
				c0.3,0,1.2-0.8,2.7-2.3c0.3,0.2,0.4,0.3,0.6,0.6c-1.5,1.6-2.6,2.6-3.3,3.1c-0.7,0.5-1.2,0.7-1.7,0.8c-0.4,0-0.7,0-0.9-0.3
				c-0.2-0.2-0.3-0.5-0.3-1c0-1.4,0.8-4.8,2.4-10.4c0.1-0.3,0.1-0.5,0.1-0.7c0-0.2-0.1-0.3-0.3-0.3c-0.2,0-0.5,0.1-0.7,0.3
				C314.3,466.7,313.6,467.3,312.7,468.4z M319.1,456.7c0.3,0,0.6,0,0.8,0.3c0.2,0.2,0.3,0.5,0.3,0.8c0,0.5-0.2,0.9-0.5,1.3
				c-0.3,0.4-0.7,0.6-1.1,0.7c-0.3,0-0.6-0.1-0.8-0.3c-0.2-0.2-0.3-0.5-0.3-0.9c0-0.5,0.2-0.9,0.5-1.3
				C318.3,457,318.6,456.8,319.1,456.7z"/>
			<path class="st0" d="M325.1,466.2c0.9-1.1,1.7-1.9,2.6-2.4c0.9-0.5,1.6-0.8,2.3-0.9c0.8-0.1,1.4,0.2,1.8,0.8
				c0.5,0.6,0.7,1.5,0.7,2.8c0,1.8-0.4,3.6-1.3,5.4c-0.8,1.8-1.9,3.2-3.1,4.2c-1.2,1-2.4,1.5-3.6,1.6c-1,0.1-1.8-0.1-2.4-0.7
				c-0.6-0.5-0.9-1.3-0.9-2.2c0-0.8,0.1-1.8,0.4-3.2c0.8-3.6,1.2-5.4,1.9-8.9c0.5-2.2,1.1-3.9,1.8-5.1c0.7-1.2,1.6-2.2,2.8-2.9
				c1.2-0.8,2.2-1.2,3.3-1.3c0.6,0,1.1,0,1.4,0.2s0.4,0.5,0.4,0.8c0,0.3-0.1,0.6-0.4,0.9c-0.3,0.2-0.6,0.4-1.1,0.4
				c-0.4,0-1,0-1.9-0.1c-0.4,0-0.7-0.1-1,0c-0.5,0-1,0.4-1.3,1c-0.3,0.5-0.6,1.7-1,3.6C325.9,462.6,325.6,463.8,325.1,466.2z
				 M328.3,464.9c-0.5,0-1.2,0.4-1.9,1.1c-0.7,0.7-1.4,1.9-2.1,3.6c-0.7,1.7-1,3.4-1,5c0,0.6,0.2,1.1,0.6,1.5
				c0.4,0.4,0.8,0.5,1.3,0.5c1.2-0.1,2.3-1.2,3.2-3.2s1.4-4,1.4-5.9c0-0.9-0.2-1.6-0.5-2.1C329.1,465,328.8,464.9,328.3,464.9z"/>
			<path class="st0" d="M337.2,476.4c-1,0-1.5,0.1-2.4,0.1c0.5-1.8,0.7-2.7,1.1-4.5c0.6-2.2,1-4.3,1.5-6.3c0.1-0.5,0.1-0.8,0.1-0.9
				c0-0.3-0.1-0.4-0.4-0.4c-0.2,0-0.4,0.1-0.7,0.4c-0.3,0.2-0.9,0.8-1.8,1.8c-0.2-0.2-0.3-0.3-0.5-0.6c1-1.2,2.1-2.1,3.1-2.8
				c1-0.6,1.8-0.9,2.4-1c0.2,0,0.3,0,0.5,0.1c0.1,0.1,0.2,0.2,0.2,0.4c0,0.1-0.1,0.5-0.2,1.2c-0.3,1.2-0.4,1.8-0.7,3
				c1.1-1.8,2.3-3.4,3.7-4.7c0.7-0.6,1.2-0.9,1.7-1c0.3,0,0.6,0.1,0.8,0.3s0.3,0.5,0.3,0.8c0,0.3-0.1,0.6-0.3,0.8
				c-0.2,0.2-0.7,0.5-1.6,0.8c-0.8,0.3-1.5,0.7-2,1.1c-0.5,0.4-1.1,1-1.7,1.8c-0.6,0.8-1,1.5-1.3,2.1c-0.2,0.6-0.6,2-1.1,4.2
				C337.6,474.5,337.5,475.1,337.2,476.4z"/>
			<path class="st0" d="M355.3,461.8c0.4-0.1,0.6-0.1,1.1-0.2c-0.5,1.7-0.7,2.5-1.2,4.2c-0.5,1.7-0.9,3.6-1.4,5.8
				c-0.2,1.2-0.4,2-0.4,2.3c0,0.3,0.1,0.5,0.4,0.5c0.2,0,0.5-0.1,0.8-0.3c0.7-0.4,1.3-0.9,1.9-1.5c0.2,0.3,0.3,0.4,0.5,0.7
				c-1.2,1.1-2,1.8-2.4,2c-0.7,0.5-1.4,0.8-2,1.1c-0.4,0.1-0.8,0.2-1.2,0.2c-0.3,0-0.5-0.1-0.6-0.2c-0.1-0.1-0.2-0.3-0.2-0.6
				c0-0.2,0-0.4,0.1-0.7c0.3-0.9,0.4-1.4,0.7-2.3c-0.9,1.1-2,2.1-3.3,3c-0.8,0.5-1.5,0.8-2.2,0.8c-0.6,0-1.1-0.2-1.5-0.7
				c-0.5-0.6-0.7-1.4-0.7-2.4c0-1.2,0.3-2.5,0.9-4c0.6-1.5,1.4-2.8,2.5-4c1-1.2,2.1-2.1,3.3-2.6c0.9-0.4,2-0.6,3.4-0.6
				c0.3,0,0.7,0,1.1,0.1C355.1,462.2,355.1,462.1,355.3,461.8z M353.3,464.3c-0.6-0.1-1.1-0.2-1.5-0.2c-1,0-1.8,0.3-2.6,0.8
				c-0.7,0.6-1.4,1.6-2,3c-0.6,1.4-0.9,2.9-0.9,4.3c0,0.8,0.1,1.3,0.4,1.6c0.2,0.3,0.6,0.5,1,0.5c0.7,0,1.6-0.4,2.4-1.3
				c0.9-0.8,1.5-2,1.9-3.6C352.5,467.5,352.7,466.4,353.3,464.3z"/>
			<path class="st0" d="M361.2,476.5c-1-0.1-1.5-0.1-2.4-0.1c0.5-1.8,0.7-2.7,1.1-4.5c0.6-2.2,1-4.3,1.4-6.3
				c0.1-0.5,0.1-0.8,0.1-0.9c0-0.3-0.1-0.4-0.4-0.4c-0.2,0-0.4,0.1-0.7,0.3c-0.3,0.2-0.9,0.8-1.8,1.6c-0.2-0.2-0.3-0.4-0.5-0.6
				c1-1.1,2.1-1.9,3.1-2.5c1-0.5,1.8-0.8,2.4-0.7c0.2,0,0.4,0.1,0.5,0.2c0.1,0.1,0.2,0.2,0.2,0.4c0,0.1-0.1,0.5-0.2,1.2
				c-0.3,1.2-0.4,1.8-0.7,3c1.1-1.7,2.3-3.2,3.7-4.3c0.7-0.6,1.2-0.8,1.7-0.8c0.3,0,0.6,0.2,0.8,0.4c0.2,0.2,0.3,0.5,0.3,0.8
				c0,0.3-0.1,0.6-0.3,0.7c-0.2,0.2-0.7,0.4-1.6,0.6c-0.8,0.2-1.5,0.5-2,0.9c-0.5,0.4-1.1,0.9-1.7,1.7c-0.6,0.8-1,1.4-1.3,2
				c-0.2,0.6-0.6,2-1.1,4.1C361.6,474.5,361.5,475.2,361.2,476.5z"/>
			<path class="st0" d="M368.7,466.7c-0.3-0.3-0.4-0.4-0.7-0.6c1.1-1.1,2.1-1.9,3-2.4c0.9-0.4,1.7-0.6,2.3-0.5
				c0.3,0,0.6,0.2,0.8,0.3c0.2,0.2,0.3,0.4,0.3,0.7c0,0.3-0.4,1.7-1.1,4c-1.1,3.9-1.7,6.2-1.7,7c0,0.2,0,0.3,0.1,0.4
				c0.1,0.1,0.2,0.2,0.2,0.2c0.3,0,1.2-0.6,2.7-1.8c0.3,0.3,0.4,0.4,0.6,0.7c-1.5,1.3-2.6,2.1-3.3,2.4c-0.7,0.3-1.2,0.5-1.7,0.4
				c-0.4,0-0.7-0.2-0.9-0.5c-0.2-0.3-0.3-0.6-0.3-1.1c0-1.4,0.8-4.8,2.4-10.1c0.1-0.3,0.1-0.5,0.1-0.7c0-0.2-0.1-0.3-0.3-0.4
				c-0.2,0-0.5,0-0.7,0.2C370.3,465.3,369.7,465.9,368.7,466.7z M375.1,456.2c0.3,0,0.6,0.2,0.8,0.5c0.2,0.3,0.3,0.6,0.3,0.9
				c0,0.5-0.2,0.9-0.5,1.2c-0.3,0.3-0.7,0.5-1.1,0.4c-0.3,0-0.6-0.2-0.8-0.5c-0.2-0.3-0.3-0.6-0.3-1c0-0.5,0.2-0.9,0.5-1.2
				C374.3,456.3,374.7,456.2,375.1,456.2z"/>
			<path class="st0" d="M384.7,475c0.2,0.3,0.3,0.5,0.5,0.9c-2.7,2.1-4.9,3.1-6.8,2.8c-0.8-0.1-1.4-0.5-1.8-1.1
				c-0.4-0.6-0.6-1.5-0.6-2.7c0-2.4,0.7-4.7,2.1-6.9c1.6-2.5,3.5-3.6,5.7-3.2c0.8,0.1,1.4,0.5,1.8,0.9c0.4,0.5,0.6,1.1,0.6,1.8
				c0,0.7-0.2,1.4-0.7,2c-0.5,0.6-1.4,1.2-2.6,1.7c-0.6,0.3-2,0.7-4,1.4c-0.1,0.6-0.1,1.2-0.1,1.7c0,0.8,0.1,1.4,0.4,1.7
				c0.2,0.4,0.6,0.6,1.1,0.6c0.4,0.1,0.9,0,1.5-0.1C382.3,476.4,383.4,475.9,384.7,475z M379,471.6c1.7-0.5,3.1-1.2,3.9-2
				c0.6-0.6,0.9-1.1,0.9-1.8c0-0.5-0.1-0.9-0.4-1.2c-0.2-0.3-0.6-0.5-1-0.6c-0.4-0.1-0.8,0-1.2,0.3c-0.5,0.3-0.9,0.9-1.3,1.7
				C379.6,469.1,379.2,470.3,379,471.6z"/>
			<path class="st0" d="M394.7,467.2c1,0.2,1.7,0.6,2.2,1.2c0.5,0.5,0.8,1.1,0.8,1.6c0,0.3-0.1,0.5-0.3,0.7
				c-0.2,0.2-0.5,0.2-0.8,0.1c-0.2-0.1-0.4-0.2-0.5-0.3c-0.2-0.1-0.4-0.4-0.7-0.9c-0.5-0.9-1.1-1.4-1.6-1.5c-0.4-0.1-0.8,0-1.2,0.2
				c-0.3,0.3-0.5,0.7-0.5,1.2c0,0.5,0.1,0.9,0.3,1.4c0.2,0.5,0.8,1.3,1.6,2.5c1.2,1.6,1.8,3.1,1.8,4.3c0,1.2-0.5,2.1-1.5,2.8
				c-1,0.7-2.2,0.8-3.8,0.4c-1.3-0.3-2.3-0.8-2.9-1.5c-0.6-0.7-0.9-1.4-0.9-2.2c0-0.4,0.1-0.7,0.4-0.9s0.5-0.3,0.9-0.2
				c0.3,0.1,0.6,0.2,0.8,0.5c0.2,0.3,0.3,0.5,0.3,0.8c0,0.1,0,0.3,0,0.4c0,0.1,0,0.3,0,0.4c0,0.4,0.2,0.7,0.5,1.1
				c0.3,0.3,0.7,0.5,1.2,0.7c0.6,0.1,1.1,0.2,1.5,0.1c0.4-0.1,0.8-0.3,1-0.7c0.2-0.4,0.4-0.8,0.4-1.2c0-0.4-0.1-0.8-0.4-1.3
				c-0.2-0.5-0.8-1.3-1.6-2.4c-1.1-1.6-1.7-3-1.7-4.2c0-1.1,0.4-2,1.3-2.6C392.3,467,393.4,466.8,394.7,467.2z"/>
		</g>
		<g>
		</g>
		<g>
		</g>
	</g>
</g>
</svg>
